<?xml version="1.0" standalone="no"?>
<!DOCTYPE svg PUBLIC "-//W3C//DTD SVG 20010904//EN"
 "http://www.w3.org/TR/2001/REC-SVG-20010904/DTD/svg10.dtd">
<svg version="1.0" xmlns="http://www.w3.org/2000/svg"
 width="512.000000pt" height="512.000000pt" viewBox="0 0 512.000000 512.000000"
 preserveAspectRatio="xMidYMid meet">

<g transform="translate(0.000000,512.000000) scale(0.100000,-0.100000)"
fill="#000000" stroke="none">
<path d="M3590 4385 c-30 -8 -93 -34 -140 -56 l-85 -41 -1258 -1257 c-692
-691 -1265 -1268 -1272 -1282 -14 -26 -115 -845 -115 -929 0 -33 6 -48 29 -71
41 -41 -18 -44 790 41 107 12 201 25 210 30 9 5 581 575 1271 1267 1353 1355
1303 1302 1353 1458 18 58 22 93 22 205 0 121 -3 143 -27 208 -37 103 -82 173
-159 251 -78 77 -149 122 -251 158 -92 33 -279 42 -368 18z m259 -200 c230
-55 383 -284 342 -514 -23 -129 -55 -176 -258 -381 l-182 -185 -321 320 -320
320 192 191 c201 198 234 223 343 250 68 17 128 17 204 -1z m-559 -911 l313
-316 -974 -974 -974 -974 -357 -38 c-342 -36 -358 -37 -358 -19 0 10 18 172
40 360 l41 342 967 968 c532 532 972 967 978 967 6 0 152 -142 324 -316z"/>
</g>
</svg>
