<?xml version="1.0" encoding="UTF-8"?>
<svg version="1.1" xmlns="http://www.w3.org/2000/svg" width="512" height="512">
<path d="M0 0 C1.00804687 -0.02835938 2.01609375 -0.05671875 3.0546875 -0.0859375 C9.76413907 0.92133385 14.39122808 6.3537577 18.98321533 10.97924805 C19.98109168 11.97244442 19.98109168 11.97244442 20.99912715 12.98570538 C23.21936001 15.19798282 25.43240147 17.41731385 27.64550781 19.63671875 C29.23877244 21.22727248 30.83246205 22.81740061 32.42654419 24.40713501 C36.74905799 28.72053578 41.06522713 33.04023339 45.38001347 37.36136246 C49.89510405 41.88151685 54.41507258 46.39678922 58.93426514 50.9128418 C67.00616674 58.98087265 75.07301322 67.05393214 83.137889 75.12898433 C90.4504358 82.45047228 97.768219 89.76669212 105.08984375 97.07910156 C113.59628937 105.57484559 122.09936557 114.0739351 130.59750628 122.57798862 C135.09466611 127.07826934 139.59317311 131.57718103 144.09519196 136.07260132 C148.3251578 140.29679992 152.55022031 144.52584178 156.77151108 148.75870895 C158.32343515 150.31328259 159.87707307 151.86614741 161.43252182 153.41719437 C163.55123779 155.53046551 165.66372897 157.64976754 167.77471924 159.77075195 C168.70534207 160.69468262 168.70534207 160.69468262 169.65476537 161.63727856 C170.21935735 162.20708604 170.78394934 162.77689352 171.36565018 163.3639679 C171.85375585 163.85239827 172.34186152 164.34082865 172.84475827 164.84405994 C176.63150698 169.37233391 176.54849806 173.75841237 176.4375 179.4609375 C175.86897844 184.76240101 173.34634216 187.21472495 169.625 190.75 C164.56721514 193.09825726 159.60814207 193.34597307 154.125 192.375 C149.38101646 189.56566437 145.66716128 186.19806062 141.82278442 182.31329346 C141.21737568 181.70959356 140.61196693 181.10589366 139.98821247 180.48389983 C137.97059983 178.46956876 135.96019636 176.44819674 133.94970703 174.42675781 C132.5009943 172.97748068 131.05184051 171.52864431 129.60227966 170.08021545 C125.67471579 166.15322497 121.75334527 162.22010233 117.83305979 158.28584766 C113.73269105 154.17296925 109.62665094 150.06576077 105.52120972 145.95794678 C97.75067168 138.18119468 89.98524562 130.39935876 82.22164428 122.61568236 C73.38160966 113.75328647 64.5358896 104.89657467 55.68968797 96.04033518 C37.49512647 77.82487336 19.30771459 59.6022869 1.125 41.375 C-3.04343375 43.01125727 -5.82590486 46.05908845 -8.90979004 49.18273926 C-9.51066767 49.78331917 -10.11154531 50.38389909 -10.73063135 51.00267839 C-12.74512333 53.01856056 -14.75237452 55.04150174 -16.75976562 57.06445312 C-18.20167859 58.51020391 -19.64404721 59.95550038 -21.08683777 61.40037537 C-24.19391692 64.5137802 -27.29786049 67.63026645 -30.39945984 70.74913025 C-35.30173956 75.67841992 -40.21160735 80.6001034 -45.12268066 85.52062988 C-55.54603335 95.96619777 -65.96093685 106.42017181 -76.375 116.875 C-87.61696138 128.16096716 -98.86033194 139.44550742 -110.11348295 150.72031927 C-114.99746114 155.61427746 -119.87651707 160.5130755 -124.75189972 165.41559601 C-127.78305082 168.46164148 -130.8183178 171.50355964 -133.85473061 174.54435921 C-135.26420095 175.95758102 -136.6719376 177.37253432 -138.07782555 178.78931999 C-139.99404647 180.71992752 -141.91630799 182.64431201 -143.84020996 184.56726074 C-144.39779952 185.13204022 -144.95538907 185.6968197 -145.52987528 186.2787137 C-150.22401473 190.94792298 -153.13885158 192.6658887 -159.75 192.75 C-164.95766907 192.64863418 -167.98080633 192.07448398 -171.875 188.375 C-176.28915841 183.72851746 -176.34258261 179.48706934 -176.40625 173.375 C-175.22639834 166.71230826 -169.89647082 162.10899878 -165.27075195 157.51678467 C-164.27755558 156.51890832 -164.27755558 156.51890832 -163.26429462 155.50087285 C-161.05201718 153.28063999 -158.83268615 151.06759853 -156.61328125 148.85449219 C-155.02272752 147.26122756 -153.43259939 145.66753795 -151.84286499 144.07345581 C-147.52946422 139.75094201 -143.20976661 135.43477287 -138.88863754 131.11998653 C-134.36848315 126.60489595 -129.85321078 122.08492742 -125.3371582 117.56573486 C-117.26912735 109.49383326 -109.19606786 101.42698678 -101.12101567 93.362111 C-93.79952772 86.0495642 -86.48330788 78.731781 -79.17089844 71.41015625 C-70.67515441 62.90371063 -62.1760649 54.40063443 -53.67201138 45.90249372 C-49.17173066 41.40533389 -44.67281897 36.90682689 -40.17739868 32.40480804 C-35.95320008 28.1748422 -31.72415822 23.94977969 -27.49129105 19.72848892 C-25.93671741 18.17656485 -24.38385259 16.62292693 -22.83280563 15.06747818 C-20.71953449 12.94876221 -18.60023246 10.83627103 -16.47924805 8.72528076 C-15.86329427 8.10486554 -15.24734049 7.48445032 -14.61272144 6.84523463 C-14.04291396 6.28064265 -13.47310648 5.71605066 -12.8860321 5.13434982 C-12.15338654 4.40219132 -12.15338654 4.40219132 -11.40594006 3.65524173 C-7.78958225 0.6310788 -4.65420315 0.05921378 0 0 Z " fill="#FEFEFE" transform="translate(255.875,159.625)"/>
</svg>
